<svg version="1.1" id="svg24" xmlns="http://www.w3.org/2000/svg" x="0" y="0" viewBox="0 0 2500 726.6" style="enable-background:new 0 0 2500 726.6" xml:space="preserve">
  <style>.st0{fill-rule:evenodd;clip-rule:evenodd;fill:#ffffff}</style>
  <path id="path6" class="st0" d="M0 0h220.9v177.6H0V0z"/>
  <path id="path8" class="st0" d="M0 250.3h220.9v476.3H0V250.3z"/>
  <path id="path10" class="st0" d="M298.5 246.2h236.4v480.3H298.5V246.2z"/>
  <path id="path12" class="st0" d="M775.2 246.2h220.9v480.3H775.2V246.2z"/>
  <path id="path14" class="st0" d="M298.5 0h496.1C899 7 966.1 73.3 988.4 177.8l-689.9-.2V0z"/>
  <path id="path16" class="st0" d="M1069.8 0h666.7v177.6h-666.7V0z"/>
  <path id="path18" class="st0" d="M1069.8 246.2h662.8V448h-441.9v76.7h445.7v201.8h-666.3l-.3-480.3z"/>
  <path id="path20" class="st0" d="M1798.4 0h496.1c102.7-1.6 190.9 58.9 203.5 177.6h-699.7l.1-177.6z"/>
  <path id="path22" class="st0" d="M1798.4 250.3H2500c-10.3 103.2-90.3 184.7-205.4 197.8h-259.7v278.3h-236.4V250.3z"/>
</svg>
